<mxfile host="app.diagrams.net" modified="2023-10-06T14:33:07.526Z" agent="Mozilla/5.0 (X11; Linux x86_64; rv:109.0) Gecko/20100101 Firefox/118.0" etag="qMPlahb5OEpGRcJmr3ur" version="22.0.3" type="github">
  <diagram name="Seite-1" id="sS9D55qsQwh3D_6DR1mg">
    <mxGraphModel dx="1394" dy="796" grid="1" gridSize="10" guides="1" tooltips="1" connect="1" arrows="1" fold="1" page="1" pageScale="1" pageWidth="827" pageHeight="1169" math="0" shadow="0">
      <root>
        <mxCell id="0" />
        <mxCell id="1" parent="0" />
        <mxCell id="W9KQCxlc-OIdKvCiZKbw-1" value="Image Animation Source" style="rounded=1;whiteSpace=wrap;html=1;" vertex="1" parent="1">
          <mxGeometry x="110" y="250" width="120" height="60" as="geometry" />
        </mxCell>
        <mxCell id="W9KQCxlc-OIdKvCiZKbw-2" value="Image Animation Target" style="rounded=1;whiteSpace=wrap;html=1;" vertex="1" parent="1">
          <mxGeometry x="570" y="250" width="120" height="60" as="geometry" />
        </mxCell>
        <mxCell id="W9KQCxlc-OIdKvCiZKbw-3" value="SATF" style="rounded=1;whiteSpace=wrap;html=1;" vertex="1" parent="1">
          <mxGeometry x="330" y="250" width="120" height="60" as="geometry" />
        </mxCell>
      </root>
    </mxGraphModel>
  </diagram>
</mxfile>
